<svg class="svg" width="21" height="15" viewBox="0 0 21 15" fill="none" xmlns="http://www.w3.org/2000/svg">
    <path d="M20.3282 11.9634C20.3282 11.9634 20.3281 11.9633 20.3281 11.9633C19.7583 11.3936 19.1138 10.9324 18.4051 10.5845C19.7371 9.12137 20.2578 7.36336 20.2578 7.08254C20.2578 6.80672 20.067 6.57543 19.8103 6.51313C18.8581 6.25977 17.8612 6.18445 16.8824 6.28746C16.9185 6.10484 16.9493 5.9207 16.9738 5.73488C17.1225 4.60563 17.0484 3.47527 16.7537 2.37516C16.6665 2.04961 16.3358 1.88047 16.0359 1.96082C14.9321 2.25645 13.8957 2.77254 12.9935 3.46898C12.3939 1.81188 11.4677 0.749336 10.9145 0.196055C10.8046 0.0861721 10.6552 0.0244141 10.4998 0.0244141C10.3444 0.0244141 10.1954 0.0861721 10.0855 0.196055C9.53402 0.747539 8.6066 1.8102 8.00648 3.46895C7.1043 2.7725 6.06789 2.25641 4.9641 1.96078C4.65145 1.87711 4.33031 2.0625 4.24652 2.37504C4.0416 3.13953 3.77227 4.54 4.11754 6.28742C3.13941 6.18449 2.1432 6.25961 1.19156 6.51258C0.93375 6.57414 0.74207 6.80621 0.74207 7.08285C0.74207 7.29586 1.19992 9.05211 2.59484 10.5845C1.88602 10.9323 1.24152 11.3935 0.671758 11.9633C0.561758 12.0732 0.5 12.2225 0.5 12.3779C0.5 12.5333 0.561758 12.6823 0.671641 12.7922C2.03957 14.1601 3.85832 14.9135 5.79285 14.9135C7.53809 14.9135 9.1891 14.3002 10.4999 13.1759C11.8107 14.3002 13.4616 14.9135 15.2069 14.9135C17.1358 14.9135 18.9496 14.1645 20.3161 12.8041C20.4293 12.6973 20.5 12.5458 20.5 12.3779C20.5 12.216 20.4343 12.0695 20.3282 11.9634ZM16.5427 7.51688C17.328 7.37981 18.136 7.38 18.9214 7.5166C18.3678 9.03758 17.3081 10.3036 15.8896 11.1224C14.9312 11.6759 13.8781 11.9853 12.8038 12.041C14.5237 11.0246 15.4477 9.69172 15.8914 8.9232C16.15 8.47531 16.3684 8.00363 16.5427 7.51688ZM2.07844 7.51656C2.86375 7.38 3.6718 7.37977 4.45703 7.51684C4.63129 8.0036 4.84969 8.47535 5.10824 8.92309C5.55184 9.69141 6.47598 11.0246 8.19586 12.0409C7.12164 11.9852 6.06836 11.6757 5.10996 11.1223C3.69187 10.3038 2.63223 9.03773 2.07844 7.51656ZM5.79281 13.7416C4.37844 13.7416 3.03801 13.2613 1.95766 12.3776C2.43074 11.9904 2.95414 11.6809 3.52145 11.453C3.83809 11.7059 4.17414 11.9353 4.52402 12.1373C5.20941 12.533 6.50309 13.1503 8.27535 13.2144C7.50465 13.5599 6.66277 13.7416 5.79281 13.7416ZM6.12313 8.33719C5.70676 7.61609 4.7932 5.7441 5.24402 3.27508C6.12996 3.59266 6.95215 4.07711 7.65938 4.69957C7.53809 5.28961 7.47676 5.89172 7.47676 6.49414C7.47676 7.42867 7.6216 9.13887 8.67852 10.9636C7.25926 10.0904 6.49422 8.97992 6.12313 8.33719ZM10.4998 11.5159C8.8007 9.52805 8.64863 7.36234 8.64863 6.49414C8.64863 5.62504 8.80098 3.45981 10.4998 1.47238C12.1987 3.45984 12.3511 5.62492 12.3511 6.49414C12.3511 7.36313 12.1987 9.52848 10.4998 11.5159ZM13.5229 6.4941C13.5229 5.89168 13.4616 5.28961 13.3403 4.69953C14.0477 4.07699 14.8699 3.59254 15.7559 3.27496C16.2064 5.74406 15.293 7.61602 14.8766 8.33715C14.5043 8.98195 13.739 10.0912 12.3212 10.9635C13.3777 9.13961 13.5229 7.42918 13.5229 6.4941ZM15.2069 13.7416C14.337 13.7416 13.495 13.56 12.7243 13.2144C14.4995 13.1502 15.7942 12.5308 16.4755 12.1373C16.8255 11.9353 17.1616 11.7059 17.4782 11.453C18.0455 11.6809 18.5689 11.9904 19.042 12.3776C17.9617 13.2613 16.6213 13.7416 15.2069 13.7416Z" fill="url(#paint0_linear_111_10280)"/>
    <defs>
        <linearGradient id="paint0_linear_111_10280" x1="-10.625" y1="-10.3152" x2="23.9089" y2="-4.80363" gradientUnits="userSpaceOnUse">
            <stop stop-color="#F64D4D"/>
            <stop offset="1" stop-color="#4D5EF6"/>
        </linearGradient>
    </defs>
</svg>
