<svg width="28" height="26" viewBox="0 0 28 26" fill="none" xmlns="http://www.w3.org/2000/svg">
<path d="M20.7709 0.258301C17.95 0.258301 15.8155 1.91379 14 3.64372C12.2701 1.80798 10.0501 0.258301 7.22921 0.258301C3.25641 0.258301 0.458374 3.67416 0.458374 7.39901C0.458374 9.39724 1.2768 10.8369 2.17308 12.1885L12.6958 24.8043C13.8773 26.0543 14.0999 26.0543 15.2814 24.8043L25.8278 12.1885C26.8815 10.8369 27.5417 9.39724 27.5417 7.39901C27.5417 3.67421 24.7436 0.258301 20.7709 0.258301ZM24.1563 11.8382L14 23.9562L3.84379 11.7882C2.62929 10.0997 2.15108 8.96055 2.15108 7.39901C2.15108 4.48923 4.22889 1.86976 7.22921 1.8452C9.6972 1.82489 12.4944 4.34532 14 6.2454C15.4659 4.41134 18.3029 1.8452 20.7709 1.8452C23.6916 1.8452 25.849 4.48923 25.849 7.39901C25.849 8.96055 25.4707 10.1843 24.1563 11.8382Z" fill="black"/>
</svg>
