<svg class="svg" width="21" height="17" viewBox="0 0 21 17" fill="none" xmlns="http://www.w3.org/2000/svg">
    <path d="M20.3715 5.86821L17.5768 2.28145C16.8972 1.40932 15.8734 0.90918 14.7677 0.90918H12.9244C12.6689 0.90918 12.4406 1.06879 12.3529 1.30882C12.0697 2.08332 11.3251 2.60372 10.5 2.60372C9.67492 2.60372 8.93041 2.08332 8.64717 1.30882C8.55946 1.06879 8.33116 0.90918 8.07566 0.90918H6.2322C5.12665 0.90918 4.10273 1.40932 3.42316 2.28154L0.628546 5.86821C0.507098 6.02409 0.468847 6.22917 0.52605 6.41834C0.583253 6.60751 0.728695 6.75712 0.916214 6.81954L4.78987 8.11009V15.7327C4.78987 16.0688 5.06232 16.3413 5.39841 16.3413H15.6016C15.9377 16.3413 16.2102 16.0688 16.2102 15.7327V8.11009L20.0838 6.81954C20.2713 6.75712 20.4168 6.60751 20.474 6.41834C20.5312 6.22917 20.4929 6.02409 20.3715 5.86821ZM16.2102 6.82728V5.93272C16.2102 5.59663 15.9377 5.32417 15.6016 5.32417C15.2655 5.32417 14.9931 5.59663 14.9931 5.93272V15.1242H6.00687V5.93272C6.00687 5.59663 5.73442 5.32417 5.39832 5.32417C5.06223 5.32417 4.78978 5.59663 4.78978 5.93272V6.82728L2.11774 5.93706L4.38318 3.02961C4.83055 2.45549 5.50438 2.12627 6.2322 2.12627H7.68237C8.22962 3.15488 9.31336 3.82072 10.4999 3.82072C11.6865 3.82072 12.7702 3.1548 13.3176 2.12627H14.7677C15.4955 2.12627 16.1694 2.45549 16.6168 3.02952L18.8823 5.93706L16.2102 6.82728Z" fill="url(#paint0_linear_111_10271)"/>
        <defs>
        <linearGradient id="paint0_linear_111_10271" x1="-10.625" y1="-9.80755" x2="23.9683" y2="-4.48076" gradientUnits="userSpaceOnUse">
            <stop stop-color="#F64D4D"/>
            <stop offset="1" stop-color="#4D5EF6"/>
        </linearGradient>
    </defs>
</svg>
