<svg class="vk__svg" width="28" height="16" viewBox="0 0 28 16" fill="none" xmlns="http://www.w3.org/2000/svg">
    <path d="M26.4889 1.24695C26.6688 0.636597 26.4889 0.187378 25.6236 0.187378H22.7604C22.0313 0.187378 21.6959 0.57312 21.516 1.00281C21.516 1.00281 20.0577 4.57214 17.9966 6.8866C17.3306 7.55554 17.0243 7.77039 16.6597 7.77039C16.4799 7.77039 16.2028 7.55554 16.2028 6.94519V1.24695C16.2028 0.514526 15.9986 0.187378 15.3959 0.187378H10.8945C10.4375 0.187378 10.1653 0.529175 10.1653 0.846558C10.1653 1.53992 11.1959 1.70105 11.3028 3.65417V7.89246C11.3028 8.82019 11.1375 8.99109 10.7729 8.99109C9.80072 8.99109 7.43822 5.4071 6.03822 1.30554C5.75628 0.509644 5.47919 0.187378 4.74516 0.187378H1.88197C1.0653 0.187378 0.900024 0.57312 0.900024 1.00281C0.900024 1.76453 1.87225 5.54871 5.42572 10.5487C7.79308 13.9618 11.1278 15.8124 14.1611 15.8124C15.9841 15.8124 16.2077 15.4022 16.2077 14.6942C16.2077 11.4325 16.0424 11.1249 16.9563 11.1249C17.3792 11.1249 18.1084 11.3397 19.8097 12.9852C21.7542 14.9384 22.075 15.8124 23.1639 15.8124H26.0271C26.8438 15.8124 27.257 15.4022 27.0188 14.5917C26.4743 12.8876 22.7945 9.38171 22.6292 9.14734C22.2063 8.60046 22.3278 8.35632 22.6292 7.86804C22.6341 7.86316 26.1292 2.92175 26.4889 1.24695Z" fill="white"/>
</svg>
