<svg class="svg" width="17" height="21" viewBox="0 0 17 21" fill="none" xmlns="http://www.w3.org/2000/svg">
    <path d="M16.5644 18.2573L11.9373 8.07777L12.4846 5.34127L15.1352 3.27971C15.4602 3.02694 15.432 2.52427 15.0767 2.31106C11.6752 0.270129 11.8798 0.361692 11.6804 0.347026C11.5636 0.338634 11.7964 0.30146 8.50001 0.960753C5.01022 0.262796 5.52968 0.365966 5.47576 0.356045C5.34526 0.330203 5.19252 0.349614 5.0603 0.428825L1.92323 2.31106C1.56925 2.52344 1.53843 3.02663 1.86535 3.28022L4.4839 5.31131L5.06155 8.0802L0.435559 18.2573C0.259217 18.6453 0.542297 19.0889 0.971016 19.0889H5.14053L5.09033 19.708C5.06265 20.0503 5.3331 20.3438 5.67661 20.3438H11.3233C11.6666 20.3438 11.9373 20.0505 11.9096 19.708L11.8594 19.0889H16.0289C16.4551 19.0889 16.7418 18.6477 16.5644 18.2573ZM11.5897 4.54708C11.4807 4.6319 11.4014 4.75935 11.374 4.896L10.8412 7.5602C10.2586 7.5602 9.67378 7.5602 9.08821 7.5602V4.91059L11.7664 1.69675L13.7354 2.87813L11.5897 4.54708ZM8.50001 2.1488C8.58326 2.1488 8.49036 2.16241 10.1184 1.83678L8.50001 3.77886L6.8816 1.83678C8.52789 2.16605 8.41852 2.1488 8.50001 2.1488ZM5.23358 1.69675L7.91181 4.91059V7.5602C7.32596 7.5602 6.73925 7.5602 6.15478 7.5602C5.54807 4.65198 5.59497 4.78189 5.49851 4.64331C5.42506 4.5381 5.55901 4.65633 3.26562 2.8775L5.23358 1.69675ZM1.88453 17.9125L5.96354 8.93878L5.23593 17.9126H1.88453V17.9125ZM6.31446 19.1674L7.16017 8.73663H9.83977L10.6855 19.1674H6.31446ZM11.764 17.9125L11.0364 8.93874L15.1155 17.9125H11.764Z" fill="url(#paint0_linear_111_10232)"/>
    <defs>
        <linearGradient id="paint0_linear_111_10232" x1="-8.64866" y1="-13.5452" x2="19.8341" y2="-10.798" gradientUnits="userSpaceOnUse">
            <stop stop-color="#F64D4D"/>
            <stop offset="1" stop-color="#4D5EF6"/>
        </linearGradient>
    </defs>
</svg>
